<?xml version="1.0" encoding="UTF-8" standalone="no"?>
<!-- Created with Inkscape (http://www.inkscape.org/) -->
<svg
   xmlns:dc="http://purl.org/dc/elements/1.1/"
   xmlns:cc="http://creativecommons.org/ns#"
   xmlns:rdf="http://www.w3.org/1999/02/22-rdf-syntax-ns#"
   xmlns:svg="http://www.w3.org/2000/svg"
   xmlns="http://www.w3.org/2000/svg"
   xmlns:sodipodi="http://sodipodi.sourceforge.net/DTD/sodipodi-0.dtd"
   xmlns:inkscape="http://www.inkscape.org/namespaces/inkscape"
   width="125.00001"
   height="125"
   id="svg2"
   sodipodi:version="0.32"
   inkscape:version="0.46"
   sodipodi:docname="symbol.svg"
   inkscape:output_extension="org.inkscape.output.svg.inkscape"
   version="1.0">
  <defs
     id="defs4">
    <inkscape:perspective
       sodipodi:type="inkscape:persp3d"
       inkscape:vp_x="0 : 526.18109 : 1"
       inkscape:vp_y="0 : 1000 : 0"
       inkscape:vp_z="744.09448 : 526.18109 : 1"
       inkscape:persp3d-origin="372.04724 : 350.78739 : 1"
       id="perspective10" />
  </defs>
  <sodipodi:namedview
     id="base"
     pagecolor="#ffffff"
     bordercolor="#666666"
     borderopacity="1.0"
     gridtolerance="10000"
     guidetolerance="10"
     objecttolerance="10"
     inkscape:pageopacity="0.0"
     inkscape:pageshadow="2"
     inkscape:zoom="1.4"
     inkscape:cx="164.33762"
     inkscape:cy="20.926364"
     inkscape:document-units="px"
     inkscape:current-layer="layer1"
     showgrid="true"
     inkscape:window-width="1071"
     inkscape:window-height="668"
     inkscape:window-x="127"
     inkscape:window-y="228">
    <inkscape:grid
       type="xygrid"
       id="grid2383"
       visible="true"
       enabled="true"
       units="pt"
       spacingx="10pt"
       spacingy="10pt" />
  </sodipodi:namedview>
  <metadata
     id="metadata7">
    <rdf:RDF>
      <cc:Work
         rdf:about="">
        <dc:format>image/svg+xml</dc:format>
        <dc:type
           rdf:resource="http://purl.org/dc/dcmitype/StillImage" />
      </cc:Work>
    </rdf:RDF>
  </metadata>
  <g
     inkscape:label="Layer 1"
     inkscape:groupmode="layer"
     id="layer1"
     transform="translate(-124.99999,-164.86218)">
    <path
       id="path3169"
       style="fill:#fdd500;fill-opacity:1;fill-rule:evenodd;stroke:none;stroke-width:5;stroke-linecap:butt;stroke-linejoin:miter;stroke-miterlimit:4;stroke-dasharray:none;stroke-opacity:1"
       d="M 199.99999,227.36218 C 203.632,244.02414 175.35172,248.81763 174.99999,227.36218 C 174.99999,214.86218 187.49999,202.36218 199.99999,202.36218 C 212.49999,202.36218 224.99999,214.86218 224.99999,227.36218 C 224.99999,252.36218 212.49999,264.86218 187.49999,264.86218 C 174.99999,264.86218 156.59829,253.75538 149.99999,227.36218 C 144.09829,203.75537 174.99999,177.36218 199.99999,177.36218 C 224.99999,177.36218 249.99998,203.02885 249.99998,227.36218 C 249.99998,252.36218 224.99999,289.86219 187.49999,289.86218 M 187.49999,239.86218 C 170.83802,243.49419 166.04454,215.21391 187.49999,214.86218 C 199.99999,214.86218 212.49999,227.36218 212.49999,239.86218 C 212.49999,252.36218 199.99999,264.86218 187.49999,264.86218 C 162.49999,264.86218 149.99999,252.36218 149.99999,227.36218 C 149.99999,214.86218 161.10679,196.46049 187.49999,189.86218 C 211.10679,183.96048 237.49998,214.86218 237.49998,239.86218 C 237.49998,264.86218 211.83332,289.86219 187.49999,289.86218 C 162.49999,289.86218 124.99999,264.86218 124.99999,227.36218 M 174.99999,227.36218 C 171.36797,210.70022 199.64826,205.90673 199.99999,227.36218 C 199.99999,239.86218 187.49999,252.36218 174.99999,252.36218 C 162.49999,252.36218 149.99999,239.86218 149.99999,227.36218 C 149.99999,202.36219 162.49999,189.8622 187.49999,189.8622 C 199.99999,189.8622 218.40169,200.96899 224.99998,227.36218 C 230.90168,250.96899 199.99999,277.36218 174.99999,277.36218 C 149.99999,277.36218 124.99999,251.69551 124.99999,227.36218 C 124.99999,202.36219 149.99999,164.8622 187.49999,164.8622 M 187.49999,214.86218 C 204.16196,211.23016 208.95544,239.51046 187.49999,239.86218 C 175.00001,239.86218 162.5,227.36218 162.5,214.86218 C 162.5,202.36218 175.00001,189.86218 187.49999,189.86218 C 212.49998,189.86218 224.99997,202.36218 224.99997,227.36218 C 224.99997,239.86218 213.89318,258.26387 187.49999,264.86218 C 163.8932,270.76387 137.5,239.86218 137.5,214.86218 C 137.5,189.86218 163.16667,164.86218 187.49999,164.86218 C 212.49998,164.86218 249.99996,189.86218 249.99996,227.36218" />
    <path
       id="path3161"
       style="fill:#fd3700;fill-opacity:1;fill-rule:evenodd;stroke:none;stroke-width:5;stroke-linecap:butt;stroke-linejoin:miter;stroke-miterlimit:4;stroke-dasharray:none;stroke-opacity:1"
       d="M 187.5,239.86218 C 170.83803,243.49419 166.04455,215.21391 187.5,214.86218 C 200,214.86218 212.5,227.36218 212.5,239.86218 C 212.5,252.36218 200,264.86218 187.5,264.86218 C 162.5,264.86218 150,252.36218 150,227.36218 C 150,214.86218 161.1068,196.46048 187.5,189.86218 C 211.1068,183.96048 237.5,214.86218 237.5,239.86218 C 237.5,264.86218 211.83333,289.86217 187.5,289.86217 C 162.5,289.86217 125,264.86218 125,227.36218 M 175,227.36218 C 171.36799,210.70021 199.64827,205.90673 200,227.36218 C 200,239.86218 187.5,252.36218 175,252.36218 C 162.5,252.36218 150,239.86218 150,227.36218 C 150,202.36218 162.5,189.86218 187.5,189.86218 C 200,189.86218 218.4017,200.96898 225,227.36218 C 230.9017,250.96898 200,277.36217 175,277.36217 C 150,277.36217 125,251.69551 125,227.36218 C 125,202.36218 150,164.86218 187.5,164.86218 M 187.5,214.86218 C 204.16197,211.23016 208.95545,239.51045 187.5,239.86218 C 175,239.86218 162.5,227.36218 162.5,214.86218 C 162.5,202.36218 175,189.86218 187.5,189.86218 C 212.49999,189.86218 224.99998,202.36218 224.99998,227.36218 C 224.99998,239.86218 213.89319,258.26388 187.5,264.86217 C 163.8932,270.76387 137.5,239.86218 137.5,214.86218 C 137.5,189.86218 163.16667,164.86218 187.5,164.86218 C 212.49999,164.86218 249.99998,189.86218 249.99998,227.36218 M 200,227.36218 C 203.63202,244.02415 175.35173,248.81763 175,227.36218 C 175,214.8622 187.5,202.36219 200,202.36219 C 212.5,202.36219 225,214.8622 225,227.36218 C 225,252.36217 212.5,264.86216 187.5,264.86216 C 175,264.86216 156.5983,253.75537 150,227.36218 C 144.0983,203.75539 175,177.36219 200,177.36219 C 225,177.36219 250,203.02886 250,227.36218 C 250,252.36217 225,289.86215 187.5,289.86215" />
    <path
       d="M 196.33884,236.20101 C 187.12527,250.55102 163.73859,233.94335 178.66117,218.52334 C 187.5,209.68451 205.17767,209.68451 214.01651,218.52334 C 222.85534,227.36218 222.85534,245.03985 214.01651,253.87868 C 196.33884,271.55635 178.66117,271.55635 160.9835,253.87868 C 152.14466,245.03985 146.98639,224.17419 160.9835,200.84567 C 173.5029,179.98001 214.01651,183.168 231.69418,200.84567 C 249.37185,218.52334 248.90043,254.35008 231.69417,271.55635 C 214.0165,289.23401 169.82233,298.07286 143.30583,271.55635 M 178.66117,236.20101 C 164.31116,226.98744 180.91883,203.60076 196.33884,218.52334 C 205.17767,227.36218 205.17767,245.03985 196.33884,253.87868 C 187.5,262.71752 169.82233,262.71752 160.9835,253.87868 C 143.30583,236.20101 143.30583,218.52334 160.9835,200.84567 C 169.82233,192.00684 190.68799,186.84857 214.01651,200.84567 C 234.88217,213.36507 231.69417,253.87868 214.0165,271.55635 C 196.33883,289.23401 160.51209,288.76262 143.30583,271.55635 C 125.62816,253.87868 116.78933,209.68451 143.30583,183.168 M 178.66117,218.52334 C 187.87473,204.17333 211.26142,220.78101 196.33884,236.20101 C 187.5,245.03985 169.82233,245.03985 160.9835,236.20101 C 152.14466,227.36218 152.14466,209.68451 160.9835,200.84567 C 178.66116,183.16801 196.33882,183.16802 214.01649,200.84569 C 222.85533,209.68452 228.01361,230.55018 214.0165,253.87868 C 201.4971,274.74434 160.9835,271.55635 143.30583,253.87868 C 125.62816,236.20101 126.09957,200.37427 143.30583,183.168 C 160.98349,165.49034 205.17766,156.65151 231.69416,183.16802 M 196.33884,218.52334 C 210.68886,227.73691 194.08117,251.1236 178.66117,236.20101 C 169.82235,227.36219 169.82234,209.68452 178.66118,200.84568 C 187.50001,192.00685 205.17769,192.00685 214.01651,200.84567 C 231.69417,218.52334 231.69416,236.201 214.01649,253.87867 C 205.17766,262.7175 184.31201,267.87578 160.9835,253.87868 C 140.11785,241.35929 143.30584,200.84568 160.98351,183.16801 C 178.66118,165.49034 214.48792,165.96175 231.69418,183.168 C 249.37184,200.84567 258.21066,245.03983 231.69416,271.55633"
       style="fill:#fd9600;fill-opacity:1;fill-rule:evenodd;stroke:none;stroke-width:5;stroke-linecap:butt;stroke-linejoin:miter;stroke-miterlimit:4;stroke-dasharray:none;stroke-opacity:1"
       id="path3167" />
  </g>
</svg>
